<?xml version="1.0" encoding="utf-8"?>
<!-- Generator: Adobe Illustrator 18.1.1, SVG Export Plug-In . SVG Version: 6.00 Build 0)  -->
<svg version="1.1" id="Layer_1" xmlns="http://www.w3.org/2000/svg" xmlns:xlink="http://www.w3.org/1999/xlink" x="0px" y="0px"
	 viewBox="0 0 15.7 16.6" enable-background="new 0 0 15.7 16.6" xml:space="preserve">
<path fill-rule="evenodd" clip-rule="evenodd" fill="#757575" d="M15.4,14.2l-3.7-3.5c0.9-1.1,1.4-2.5,1.4-4c0-3.6-2.9-6.5-6.5-6.5
	S0.2,3,0.2,6.6s2.9,6.5,6.5,6.5c1,0,2-0.3,2.8-0.7l3.8,3.9c0.5,0.5,1.3,0.3,1.9-0.2C15.7,15.5,15.8,14.6,15.4,14.2z M2.2,6.6
	c0-2.5,2-4.5,4.5-4.5c2.5,0,4.5,2,4.5,4.5s-2,4.5-4.5,4.5C4.2,11.1,2.2,9.1,2.2,6.6z"/>
</svg>
